name analog
datacolumns 19
datarows 71
range 0.127 0.162
endheader
time	ground_force_vx	ground_force_vy	ground_force_vz	ground_force_px	ground_force_py	ground_force_pz	l_ground_force_vx	l_ground_force_vy	l_ground_force_vz	l_ground_force_px	l_ground_force_py	l_ground_force_pz	ground_torque_x	ground_torque_y	ground_torque_z	l_ground_torque_x	l_ground_torque_y	l_ground_torque_z
0.127	-0.0	-0.0	-0.0	-3.9445855617523193	7.556778430938721	-580.0745239257812	-0.0	-0.0	-0.0	-0.0	-0.0	-0.0	-0.0	-0.0	-0.0	-0.0	-0.0	-0.0
0.1275	-0.0	-0.0	-0.0	-5.461035251617432	7.894252300262451	-582.5076904296875	-0.0	-0.0	-0.0	-0.0	-0.0	-0.0	-0.0	-0.0	-0.0	-0.0	-0.0	-0.0
0.128	-0.0	-0.0	-0.0	-6.094856262207031	6.990192890167236	-585.1061401367188	-0.0	-0.0	-0.0	-0.0	-0.0	-0.0	-0.0	-0.0	-0.0	-0.0	-0.0	-0.0
0.1285	-0.0	-0.0	-0.0	-6.662395477294922	7.270869731903076	-586.166259765625	-0.0	-0.0	-0.0	-0.0	-0.0	-0.0	-0.0	-0.0	-0.0	-0.0	-0.0	-0.0
0.129	-0.0	-0.0	-0.0	-6.333946228027344	6.595649719238281	-587.1708374023438	-0.0	-0.0	-0.0	-0.0	-0.0	-0.0	-0.0	-0.0	-0.0	-0.0	-0.0	-0.0
0.1295	-0.0	-0.0	-0.0	-7.019680023193359	6.328258514404297	-590.3112182617188	-0.0	-0.0	-0.0	-0.0	-0.0	-0.0	-0.0	-0.0	-0.0	-0.0	-0.0	-0.0
0.13	-0.0	-0.0	-0.0	-6.79853105545044	5.793476104736328	-594.0487060546875	-0.0	-0.0	-0.0	-0.0	-0.0	-0.0	-0.0	-0.0	-0.0	-0.0	-0.0	-0.0
0.1305	-0.0	-0.0	-0.0	-5.977104187011719	5.685996055603027	-595.2172241210938	-0.0	-0.0	-0.0	-0.0	-0.0	-0.0	-0.0	-0.0	-0.0	-0.0	-0.0	-0.0
0.131	-0.0	-0.0	-0.0	-5.503652095794678	5.0460524559021	-598.3953247070312	-0.0	-0.0	-0.0	-0.0	-0.0	-0.0	-0.0	-0.0	-0.0	-0.0	-0.0	-0.0
0.1315	-0.0	-0.0	-0.0	-4.3259711265563965	4.742032527923584	-599.4482421875	-0.0	-0.0	-0.0	-0.0	-0.0	-0.0	-0.0	-0.0	-0.0	-0.0	-0.0	-0.0
0.132	-0.0	-0.0	-0.0	-3.657630920410156	4.331479549407959	-596.2744750976562	-0.0	-0.0	-0.0	-0.0	-0.0	-0.0	-0.0	-0.0	-0.0	-0.0	-0.0	-0.0
0.1325	-0.0	-0.0	-0.0	-4.130443096160889	3.993041038513184	-596.2030029296875	-0.0	-0.0	-0.0	-0.0	-0.0	-0.0	-0.0	-0.0	-0.0	-0.0	-0.0	-0.0
0.133	-0.0	-0.0	-0.0	-4.736999034881592	3.618219375610352	-592.9541625976562	-0.0	-0.0	-0.0	-0.0	-0.0	-0.0	-0.0	-0.0	-0.0	-0.0	-0.0	-0.0
0.1335	-0.0	-0.0	-0.0	-5.02215576171875	3.430860757827759	-588.7857666015625	-0.0	-0.0	-0.0	-0.0	-0.0	-0.0	-0.0	-0.0	-0.0	-0.0	-0.0	-0.0
0.134	-0.0	-0.0	-0.0	-5.611523151397705	4.269527912139893	-587.44921875	-0.0	-0.0	-0.0	-0.0	-0.0	-0.0	-0.0	-0.0	-0.0	-0.0	-0.0	-0.0
0.1345	-0.0	-0.0	-0.0	-5.718128681182861	4.07405424118042	-584.8317260742188	-0.0	-0.0	-0.0	-0.0	-0.0	-0.0	-0.0	-0.0	-0.0	-0.0	-0.0	-0.0
0.135	-0.0	-0.0	-0.0	-6.402681827545166	4.3588056564331055	-582.3596801757812	-0.0	-0.0	-0.0	-0.0	-0.0	-0.0	-0.0	-0.0	-0.0	-0.0	-0.0	-0.0
0.1355	-0.0	-0.0	-0.0	-6.903378486633301	3.993798971176148	-581.2327880859375	-0.0	-0.0	-0.0	-0.0	-0.0	-0.0	-0.0	-0.0	-0.0	-0.0	-0.0	-0.0
0.136	-0.0	-0.0	-0.0	-7.442927837371826	4.269807815551758	-579.6351928710938	-0.0	-0.0	-0.0	-0.0	-0.0	-0.0	-0.0	-0.0	-0.0	-0.0	-0.0	-0.0
0.1365	-0.0	-0.0	-0.0	-7.387653350830078	3.339834690093994	-578.408935546875	-0.0	-0.0	-0.0	-0.0	-0.0	-0.0	-0.0	-0.0	-0.0	-0.0	-0.0	-0.0
0.137	-0.0	-0.0	-0.0	-7.80055570602417	3.11124324798584	-578.6970825195312	-0.0	-0.0	-0.0	-0.0	-0.0	-0.0	-0.0	-0.0	-0.0	-0.0	-0.0	-0.0
0.1375	-0.0	-0.0	-0.0	-9.051572799682615	2.6656570434570312	-581.04638671875	-0.0	-0.0	-0.0	-0.0	-0.0	-0.0	-0.0	-0.0	-0.0	-0.0	-0.0	-0.0
0.138	-0.0	-0.0	-0.0	-10.219273567199709	2.397189855575561	-584.8334350585938	-0.0	-0.0	-0.0	-0.0	-0.0	-0.0	-0.0	-0.0	-0.0	-0.0	-0.0	-0.0
0.1385	-0.0	-0.0	-0.0	-12.481342315673828	1.5558273792266846	-588.3656616210938	-0.0	-0.0	-0.0	-0.0	-0.0	-0.0	-0.0	-0.0	-0.0	-0.0	-0.0	-0.0
0.139	-0.0	-0.0	-0.0	-13.340845108032228	0.7534059286117554	-594.8189697265625	-0.0	-0.0	-0.0	-0.0	-0.0	-0.0	-0.0	-0.0	-0.0	-0.0	-0.0	-0.0
0.1395	-0.0	-0.0	-0.0	-14.103276252746582	0.2513747215270996	-600.854248046875	-0.0	-0.0	-0.0	-0.0	-0.0	-0.0	-0.0	-0.0	-0.0	-0.0	-0.0	-0.0
0.14	-0.0	-0.0	-0.0	-15.199470520019531	-0.112906128168106	-606.5355224609375	-0.0	-0.0	-0.0	-0.0	-0.0	-0.0	-0.0	-0.0	-0.0	-0.0	-0.0	-0.0
0.1405	-0.0	-0.0	-0.0	-14.711852073669434	-0.3486461043357849	-610.1602172851562	-0.0	-0.0	-0.0	-0.0	-0.0	-0.0	-0.0	-0.0	-0.0	-0.0	-0.0	-0.0
0.14100000000000001	-0.0	-0.0	-0.0	-14.510108947753906	-0.8255559802055359	-617.7734375	-0.0	-0.0	-0.0	-0.0	-0.0	-0.0	-0.0	-0.0	-0.0	-0.0	-0.0	-0.0
0.14150000000000001	-0.0	-0.0	-0.0	-13.730683326721191	-1.3755964040756226	-619.9839477539062	-0.0	-0.0	-0.0	-0.0	-0.0	-0.0	-0.0	-0.0	-0.0	-0.0	-0.0	-0.0
0.14200000000000002	-0.0	-0.0	-0.0	-13.420004844665527	-2.057677984237671	-620.4762573242188	-0.0	-0.0	-0.0	-0.0	-0.0	-0.0	-0.0	-0.0	-0.0	-0.0	-0.0	-0.0
0.14250000000000002	-0.0	-0.0	-0.0	-13.463184356689451	-2.434885025024414	-620.4769287109375	-0.0	-0.0	-0.0	-0.0	-0.0	-0.0	-0.0	-0.0	-0.0	-0.0	-0.0	-0.0
0.14300000000000002	-0.0	-0.0	-0.0	-13.679362297058104	-2.264668703079224	-620.9749145507812	-0.0	-0.0	-0.0	-0.0	-0.0	-0.0	-0.0	-0.0	-0.0	-0.0	-0.0	-0.0
0.14350000000000002	-0.0	-0.0	-0.0	-13.322320938110352	-2.1758861541748047	-617.7413330078125	-0.0	-0.0	-0.0	-0.0	-0.0	-0.0	-0.0	-0.0	-0.0	-0.0	-0.0	-0.0
0.14400000000000002	-0.0	-0.0	-0.0	-12.682703971862791	-2.510791778564453	-615.8578491210938	-0.0	-0.0	-0.0	-0.0	-0.0	-0.0	-0.0	-0.0	-0.0	-0.0	-0.0	-0.0
0.1445	-0.0	-0.0	-0.0	-12.5115385055542	-1.9535197019577024	-611.3836059570312	-0.0	-0.0	-0.0	-0.0	-0.0	-0.0	-0.0	-0.0	-0.0	-0.0	-0.0	-0.0
0.145	-0.0	-0.0	-0.0	-12.407535552978516	-1.5898118019104004	-607.0011596679688	-0.0	-0.0	-0.0	-0.0	-0.0	-0.0	-0.0	-0.0	-0.0	-0.0	-0.0	-0.0
0.1455	-0.0	-0.0	-0.0	-13.552789688110352	-1.5080149173736572	-603.58447265625	-0.0	-0.0	-0.0	-0.0	-0.0	-0.0	-0.0	-0.0	-0.0	-0.0	-0.0	-0.0
0.146	-0.0	-0.0	-0.0	-13.574315071105955	-0.9199137091636658	-600.0810546875	-0.0	-0.0	-0.0	-0.0	-0.0	-0.0	-0.0	-0.0	-0.0	-0.0	-0.0	-0.0
0.1465	-0.0	-0.0	-0.0	-13.642132759094238	-0.8163124322891235	-598.1467895507812	-0.0	-0.0	-0.0	-0.0	-0.0	-0.0	-0.0	-0.0	-0.0	-0.0	-0.0	-0.0
0.147	-0.0	-0.0	-0.0	-12.935523986816406	-0.0210167523473501	-592.5804443359375	-0.0	-0.0	-0.0	-0.0	-0.0	-0.0	-0.0	-0.0	-0.0	-0.0	-0.0	-0.0
0.1475	-0.0	-0.0	-0.0	-13.463824272155762	-0.103042759001255	-588.6407470703125	-0.0	-0.0	-0.0	-0.0	-0.0	-0.0	-0.0	-0.0	-0.0	-0.0	-0.0	-0.0
0.148	-0.0	-0.0	-0.0	-13.669846534729004	0.3017570972442627	-584.8387451171875	-0.0	-0.0	-0.0	-0.0	-0.0	-0.0	-0.0	-0.0	-0.0	-0.0	-0.0	-0.0
0.1485	-0.0	-0.0	-0.0	-13.77939510345459	0.5484290719032288	-581.4981079101562	-0.0	-0.0	-0.0	-0.0	-0.0	-0.0	-0.0	-0.0	-0.0	-0.0	-0.0	-0.0
0.149	-0.0	-0.0	-0.0	-14.410126686096191	0.4928443729877472	-579.9215087890625	-0.0	-0.0	-0.0	-0.0	-0.0	-0.0	-0.0	-0.0	-0.0	-0.0	-0.0	-0.0
0.1495	-0.0	-0.0	-0.0	-15.43341827392578	-0.1649085730314254	-580.98095703125	-0.0	-0.0	-0.0	-0.0	-0.0	-0.0	-0.0	-0.0	-0.0	-0.0	-0.0	-0.0
0.15	-0.0	-0.0	-0.0	-16.42799949645996	-0.2047668993473053	-585.245361328125	-0.0	-0.0	-0.0	-0.0	-0.0	-0.0	-0.0	-0.0	-0.0	-0.0	-0.0	-0.0
0.1505	-0.0	-0.0	-0.0	-17.531105041503906	-1.0564777851104736	-588.880615234375	-0.0	-0.0	-0.0	-0.0	-0.0	-0.0	-0.0	-0.0	-0.0	-0.0	-0.0	-0.0
0.151	-0.0	-0.0	-0.0	-17.657180786132812	-1.7826080322265625	-595.84033203125	-0.0	-0.0	-0.0	-0.0	-0.0	-0.0	-0.0	-0.0	-0.0	-0.0	-0.0	-0.0
0.1515	-0.0	-0.0	-0.0	-16.956432342529297	-3.215123414993286	-600.7080688476562	-0.0	-0.0	-0.0	-0.0	-0.0	-0.0	-0.0	-0.0	-0.0	-0.0	-0.0	-0.0
0.152	-0.0	-0.0	-0.0	-16.758872985839844	-3.5969462394714355	-604.669189453125	-0.0	-0.0	-0.0	-0.0	-0.0	-0.0	-0.0	-0.0	-0.0	-0.0	-0.0	-0.0
0.1525	-0.0	-0.0	-0.0	-16.389524459838867	-4.876984596252441	-609.9417724609375	-0.0	-0.0	-0.0	-0.0	-0.0	-0.0	-0.0	-0.0	-0.0	-0.0	-0.0	-0.0
0.153	-0.0	-0.0	-0.0	-16.522605895996094	-5.787261009216309	-611.099853515625	-0.0	-0.0	-0.0	-0.0	-0.0	-0.0	-0.0	-0.0	-0.0	-0.0	-0.0	-0.0
0.1535	-0.0	-0.0	-0.0	-16.516254425048828	-6.0608673095703125	-611.0013427734375	-0.0	-0.0	-0.0	-0.0	-0.0	-0.0	-0.0	-0.0	-0.0	-0.0	-0.0	-0.0
0.154	-0.0	-0.0	-0.0	-16.574838638305664	-6.512619018554688	-611.30615234375	-0.0	-0.0	-0.0	-0.0	-0.0	-0.0	-0.0	-0.0	-0.0	-0.0	-0.0	-0.0
0.1545	-0.0	-0.0	-0.0	-15.28510856628418	-6.565565586090088	-611.9653930664062	-0.0	-0.0	-0.0	-0.0	-0.0	-0.0	-0.0	-0.0	-0.0	-0.0	-0.0	-0.0
0.155	-0.0	-0.0	-0.0	-14.981407165527344	-6.054914474487305	-610.3656616210938	-0.0	-0.0	-0.0	-0.0	-0.0	-0.0	-0.0	-0.0	-0.0	-0.0	-0.0	-0.0
0.1555	-0.0	-0.0	-0.0	-13.643299102783203	-5.95402717590332	-610.1311645507812	-0.0	-0.0	-0.0	-0.0	-0.0	-0.0	-0.0	-0.0	-0.0	-0.0	-0.0	-0.0
0.156	-0.0	-0.0	-0.0	-13.073166847229004	-5.520264625549316	-605.5883178710938	-0.0	-0.0	-0.0	-0.0	-0.0	-0.0	-0.0	-0.0	-0.0	-0.0	-0.0	-0.0
0.1565	-0.0	-0.0	-0.0	-11.893805503845217	-4.902172088623047	-601.442626953125	-0.0	-0.0	-0.0	-0.0	-0.0	-0.0	-0.0	-0.0	-0.0	-0.0	-0.0	-0.0
0.157	-0.0	-0.0	-0.0	-11.792828559875488	-4.42814302444458	-599.1889038085938	-0.0	-0.0	-0.0	-0.0	-0.0	-0.0	-0.0	-0.0	-0.0	-0.0	-0.0	-0.0
0.1575	-0.0	-0.0	-0.0	-11.49689769744873	-3.292201042175293	-591.5986938476562	-0.0	-0.0	-0.0	-0.0	-0.0	-0.0	-0.0	-0.0	-0.0	-0.0	-0.0	-0.0
0.158	-0.0	-0.0	-0.0	-11.40220832824707	-2.4789295196533203	-588.795166015625	-0.0	-0.0	-0.0	-0.0	-0.0	-0.0	-0.0	-0.0	-0.0	-0.0	-0.0	-0.0
0.1585	-0.0	-0.0	-0.0	-11.731821060180664	-0.996907114982605	-588.3543090820312	-0.0	-0.0	-0.0	-0.0	-0.0	-0.0	-0.0	-0.0	-0.0	-0.0	-0.0	-0.0
0.159	-0.0	-0.0	-0.0	-10.532272338867188	0.4456520080566406	-588.152099609375	-0.0	-0.0	-0.0	-0.0	-0.0	-0.0	-0.0	-0.0	-0.0	-0.0	-0.0	-0.0
0.1595	-0.0	-0.0	-0.0	-10.17538070678711	0.6615549325942993	-590.4102783203125	-0.0	-0.0	-0.0	-0.0	-0.0	-0.0	-0.0	-0.0	-0.0	-0.0	-0.0	-0.0
0.16	-0.0	-0.0	-0.0	-9.267294883728027	1.336956024169922	-593.0310668945312	-0.0	-0.0	-0.0	-0.0	-0.0	-0.0	-0.0	-0.0	-0.0	-0.0	-0.0	-0.0
0.1605	-0.0	-0.0	-0.0	-8.396258354187012	0.817864716053009	-595.5857543945312	-0.0	-0.0	-0.0	-0.0	-0.0	-0.0	-0.0	-0.0	-0.0	-0.0	-0.0	-0.0
0.161	-0.0	-0.0	-0.0	-7.5091447830200195	0.4405027031898498	-598.9931640625	-0.0	-0.0	-0.0	-0.0	-0.0	-0.0	-0.0	-0.0	-0.0	-0.0	-0.0	-0.0
0.1615	-0.0	-0.0	-0.0	-6.769793510437012	-0.0789343565702438	-599.6389770507812	-0.0	-0.0	-0.0	-0.0	-0.0	-0.0	-0.0	-0.0	-0.0	-0.0	-0.0	-0.0
0.162	-0.0	-0.0	-0.0	-6.056209087371826	-0.4507004022598266	-600.3659057617188	-0.0	-0.0	-0.0	-0.0	-0.0	-0.0	-0.0	-0.0	-0.0	-0.0	-0.0	-0.0
